<svg width="258" height="35" viewBox="0 0 258 35" fill="none" xmlns="http://www.w3.org/2000/svg">
<path d="M7.92614 27L0.767045 0.818181H3.98864L9.46023 22.142H9.71591L15.2898 0.818181H18.8693L24.4432 22.142H24.6989L30.1705 0.818181H33.392L26.233 27H22.9602L17.1818 6.13636H16.9773L11.1989 27H7.92614ZM43.3381 27.4091C41.446 27.4091 39.8139 26.9915 38.4418 26.1562C37.0781 25.3125 36.0256 24.1364 35.2841 22.6278C34.5511 21.1108 34.1847 19.3466 34.1847 17.3352C34.1847 15.3239 34.5511 13.5511 35.2841 12.017C36.0256 10.4744 37.0568 9.27273 38.3778 8.41193C39.7074 7.54261 41.2585 7.10795 43.0312 7.10795C44.054 7.10795 45.0639 7.27841 46.0611 7.61932C47.0582 7.96023 47.9659 8.5142 48.7841 9.28125C49.6023 10.0398 50.2543 11.0455 50.7401 12.2983C51.2259 13.5511 51.4688 15.0937 51.4688 16.9261V18.2045H36.3324V15.5966H48.4006C48.4006 14.4886 48.179 13.5 47.7358 12.6307C47.3011 11.7614 46.679 11.0753 45.8693 10.5724C45.0682 10.0696 44.1222 9.81818 43.0312 9.81818C41.8295 9.81818 40.7898 10.1165 39.9119 10.7131C39.0426 11.3011 38.3736 12.0682 37.9048 13.0142C37.4361 13.9602 37.2017 14.9744 37.2017 16.0568V17.7955C37.2017 19.2784 37.4574 20.5355 37.9688 21.5668C38.4886 22.5895 39.2088 23.3693 40.1293 23.9062C41.0497 24.4347 42.1193 24.6989 43.3381 24.6989C44.1307 24.6989 44.8466 24.5881 45.4858 24.3665C46.1335 24.1364 46.6918 23.7955 47.1605 23.3438C47.6293 22.8835 47.9915 22.3125 48.2472 21.6307L51.1619 22.4489C50.8551 23.4375 50.3395 24.3068 49.6151 25.0568C48.8906 25.7983 47.9957 26.3778 46.9304 26.7955C45.8651 27.2045 44.6676 27.4091 43.3381 27.4091ZM56.4673 27V0.818181H59.4844V10.483H59.7401C59.9616 10.142 60.2685 9.70739 60.6605 9.17898C61.0611 8.64205 61.6321 8.16477 62.3736 7.74716C63.1236 7.32102 64.1378 7.10795 65.4162 7.10795C67.0696 7.10795 68.527 7.52131 69.7884 8.34801C71.0497 9.17472 72.0341 10.3466 72.7415 11.8636C73.4489 13.3807 73.8026 15.1705 73.8026 17.233C73.8026 19.3125 73.4489 21.1151 72.7415 22.6406C72.0341 24.1577 71.054 25.3338 69.8011 26.169C68.5483 26.9957 67.1037 27.4091 65.4673 27.4091C64.206 27.4091 63.196 27.2003 62.4375 26.7827C61.679 26.3565 61.0952 25.875 60.6861 25.3381C60.277 24.7926 59.9616 24.3409 59.7401 23.983H59.3821V27H56.4673ZM59.4332 17.1818C59.4332 18.6648 59.6506 19.973 60.0852 21.1065C60.5199 22.2315 61.1548 23.1136 61.9901 23.7528C62.8253 24.3835 63.848 24.6989 65.0582 24.6989C66.3196 24.6989 67.3722 24.3665 68.2159 23.7017C69.0682 23.0284 69.7074 22.125 70.1335 20.9915C70.5682 19.8494 70.7855 18.5795 70.7855 17.1818C70.7855 15.8011 70.5724 14.5568 70.1463 13.4489C69.7287 12.3324 69.0938 11.4503 68.2415 10.8026C67.3977 10.1463 66.3366 9.81818 65.0582 9.81818C63.831 9.81818 62.7997 10.1293 61.9645 10.7514C61.1293 11.3651 60.4986 12.2259 60.0724 13.3338C59.6463 14.4332 59.4332 15.7159 59.4332 17.1818ZM97.0312 27H88.9517V0.818181H97.3892C99.929 0.818181 102.102 1.34233 103.909 2.39062C105.716 3.4304 107.101 4.92614 108.064 6.87784C109.027 8.82102 109.509 11.1477 109.509 13.858C109.509 16.5852 109.023 18.9332 108.051 20.902C107.08 22.8622 105.665 24.3707 103.807 25.4276C101.949 26.4759 99.6903 27 97.0312 27ZM92.1222 24.1875H96.8267C98.9915 24.1875 100.786 23.7699 102.209 22.9347C103.632 22.0994 104.693 20.9105 105.392 19.3679C106.091 17.8253 106.44 15.9886 106.44 13.858C106.44 11.7443 106.095 9.92472 105.405 8.39915C104.714 6.86506 103.683 5.68892 102.311 4.87074C100.939 4.04403 99.2301 3.63068 97.1847 3.63068H92.1222V24.1875ZM122.651 27.4091C120.759 27.4091 119.126 26.9915 117.754 26.1562C116.391 25.3125 115.338 24.1364 114.597 22.6278C113.864 21.1108 113.497 19.3466 113.497 17.3352C113.497 15.3239 113.864 13.5511 114.597 12.017C115.338 10.4744 116.369 9.27273 117.69 8.41193C119.02 7.54261 120.571 7.10795 122.344 7.10795C123.366 7.10795 124.376 7.27841 125.374 7.61932C126.371 7.96023 127.278 8.5142 128.097 9.28125C128.915 10.0398 129.567 11.0455 130.053 12.2983C130.538 13.5511 130.781 15.0937 130.781 16.9261V18.2045H115.645V15.5966H127.713C127.713 14.4886 127.491 13.5 127.048 12.6307C126.614 11.7614 125.991 11.0753 125.182 10.5724C124.381 10.0696 123.435 9.81818 122.344 9.81818C121.142 9.81818 120.102 10.1165 119.224 10.7131C118.355 11.3011 117.686 12.0682 117.217 13.0142C116.749 13.9602 116.514 14.9744 116.514 16.0568V17.7955C116.514 19.2784 116.77 20.5355 117.281 21.5668C117.801 22.5895 118.521 23.3693 119.442 23.9062C120.362 24.4347 121.432 24.6989 122.651 24.6989C123.443 24.6989 124.159 24.5881 124.798 24.3665C125.446 24.1364 126.004 23.7955 126.473 23.3438C126.942 22.8835 127.304 22.3125 127.56 21.6307L130.474 22.4489C130.168 23.4375 129.652 24.3068 128.928 25.0568C128.203 25.7983 127.308 26.3778 126.243 26.7955C125.178 27.2045 123.98 27.4091 122.651 27.4091ZM150.83 7.36364L143.569 27H140.5L133.239 7.36364H136.512L141.932 23.0114H142.137L147.557 7.36364H150.83ZM162.342 27.4091C160.45 27.4091 158.818 26.9915 157.446 26.1562C156.082 25.3125 155.029 24.1364 154.288 22.6278C153.555 21.1108 153.189 19.3466 153.189 17.3352C153.189 15.3239 153.555 13.5511 154.288 12.017C155.029 10.4744 156.061 9.27273 157.382 8.41193C158.711 7.54261 160.262 7.10795 162.035 7.10795C163.058 7.10795 164.068 7.27841 165.065 7.61932C166.062 7.96023 166.97 8.5142 167.788 9.28125C168.606 10.0398 169.258 11.0455 169.744 12.2983C170.23 13.5511 170.473 15.0937 170.473 16.9261V18.2045H155.336V15.5966H167.404C167.404 14.4886 167.183 13.5 166.74 12.6307C166.305 11.7614 165.683 11.0753 164.873 10.5724C164.072 10.0696 163.126 9.81818 162.035 9.81818C160.833 9.81818 159.794 10.1165 158.916 10.7131C158.047 11.3011 157.377 12.0682 156.909 13.0142C156.44 13.9602 156.206 14.9744 156.206 16.0568V17.7955C156.206 19.2784 156.461 20.5355 156.973 21.5668C157.493 22.5895 158.213 23.3693 159.133 23.9062C160.054 24.4347 161.123 24.6989 162.342 24.6989C163.135 24.6989 163.85 24.5881 164.49 24.3665C165.137 24.1364 165.696 23.7955 166.164 23.3438C166.633 22.8835 166.995 22.3125 167.251 21.6307L170.166 22.4489C169.859 23.4375 169.343 24.3068 168.619 25.0568C167.895 25.7983 167 26.3778 165.934 26.7955C164.869 27.2045 163.672 27.4091 162.342 27.4091ZM178.079 0.818181V27H175.062V0.818181H178.079ZM191.582 27.4091C189.81 27.4091 188.254 26.9872 186.916 26.1435C185.587 25.2997 184.547 24.1193 183.797 22.6023C183.055 21.0852 182.685 19.3125 182.685 17.2841C182.685 15.2386 183.055 13.4531 183.797 11.9276C184.547 10.402 185.587 9.21733 186.916 8.37358C188.254 7.52983 189.81 7.10795 191.582 7.10795C193.355 7.10795 194.906 7.52983 196.236 8.37358C197.574 9.21733 198.614 10.402 199.355 11.9276C200.105 13.4531 200.48 15.2386 200.48 17.2841C200.48 19.3125 200.105 21.0852 199.355 22.6023C198.614 24.1193 197.574 25.2997 196.236 26.1435C194.906 26.9872 193.355 27.4091 191.582 27.4091ZM191.582 24.6989C192.929 24.6989 194.037 24.3537 194.906 23.6634C195.776 22.973 196.419 22.0653 196.837 20.9403C197.254 19.8153 197.463 18.5966 197.463 17.2841C197.463 15.9716 197.254 14.7486 196.837 13.6151C196.419 12.4815 195.776 11.5653 194.906 10.8665C194.037 10.1676 192.929 9.81818 191.582 9.81818C190.236 9.81818 189.128 10.1676 188.259 10.8665C187.389 11.5653 186.746 12.4815 186.328 13.6151C185.911 14.7486 185.702 15.9716 185.702 17.2841C185.702 18.5966 185.911 19.8153 186.328 20.9403C186.746 22.0653 187.389 22.973 188.259 23.6634C189.128 24.3537 190.236 24.6989 191.582 24.6989ZM205.086 34.3636V7.36364H208V10.483H208.358C208.58 10.142 208.887 9.70739 209.279 9.17898C209.679 8.64205 210.25 8.16477 210.992 7.74716C211.742 7.32102 212.756 7.10795 214.034 7.10795C215.688 7.10795 217.145 7.52131 218.407 8.34801C219.668 9.17472 220.652 10.3466 221.36 11.8636C222.067 13.3807 222.421 15.1705 222.421 17.233C222.421 19.3125 222.067 21.1151 221.36 22.6406C220.652 24.1577 219.672 25.3338 218.419 26.169C217.167 26.9957 215.722 27.4091 214.086 27.4091C212.824 27.4091 211.814 27.2003 211.056 26.7827C210.297 26.3565 209.713 25.875 209.304 25.3381C208.895 24.7926 208.58 24.3409 208.358 23.983H208.103V34.3636H205.086ZM208.051 17.1818C208.051 18.6648 208.269 19.973 208.703 21.1065C209.138 22.2315 209.773 23.1136 210.608 23.7528C211.444 24.3835 212.466 24.6989 213.676 24.6989C214.938 24.6989 215.99 24.3665 216.834 23.7017C217.686 23.0284 218.326 22.125 218.752 20.9915C219.186 19.8494 219.404 18.5795 219.404 17.1818C219.404 15.8011 219.191 14.5568 218.765 13.4489C218.347 12.3324 217.712 11.4503 216.86 10.8026C216.016 10.1463 214.955 9.81818 213.676 9.81818C212.449 9.81818 211.418 10.1293 210.583 10.7514C209.748 11.3651 209.117 12.2259 208.691 13.3338C208.265 14.4332 208.051 15.7159 208.051 17.1818ZM235.256 27.4091C233.364 27.4091 231.732 26.9915 230.36 26.1562C228.996 25.3125 227.944 24.1364 227.202 22.6278C226.469 21.1108 226.103 19.3466 226.103 17.3352C226.103 15.3239 226.469 13.5511 227.202 12.017C227.944 10.4744 228.975 9.27273 230.296 8.41193C231.625 7.54261 233.176 7.10795 234.949 7.10795C235.972 7.10795 236.982 7.27841 237.979 7.61932C238.976 7.96023 239.884 8.5142 240.702 9.28125C241.52 10.0398 242.172 11.0455 242.658 12.2983C243.144 13.5511 243.387 15.0937 243.387 16.9261V18.2045H228.25V15.5966H240.319C240.319 14.4886 240.097 13.5 239.654 12.6307C239.219 11.7614 238.597 11.0753 237.787 10.5724C236.986 10.0696 236.04 9.81818 234.949 9.81818C233.748 9.81818 232.708 10.1165 231.83 10.7131C230.961 11.3011 230.292 12.0682 229.823 13.0142C229.354 13.9602 229.12 14.9744 229.12 16.0568V17.7955C229.12 19.2784 229.375 20.5355 229.887 21.5668C230.407 22.5895 231.127 23.3693 232.047 23.9062C232.968 24.4347 234.037 24.6989 235.256 24.6989C236.049 24.6989 236.765 24.5881 237.404 24.3665C238.051 24.1364 238.61 23.7955 239.078 23.3438C239.547 22.8835 239.909 22.3125 240.165 21.6307L243.08 22.4489C242.773 23.4375 242.257 24.3068 241.533 25.0568C240.809 25.7983 239.914 26.3778 238.848 26.7955C237.783 27.2045 236.586 27.4091 235.256 27.4091ZM247.976 27V7.36364H250.891V10.3295H251.096C251.453 9.35795 252.101 8.5696 253.039 7.96449C253.976 7.35937 255.033 7.05682 256.209 7.05682C256.431 7.05682 256.708 7.06108 257.04 7.0696C257.373 7.07812 257.624 7.09091 257.794 7.10795V10.1761C257.692 10.1506 257.458 10.1122 257.091 10.0611C256.733 10.0014 256.354 9.97159 255.953 9.97159C254.999 9.97159 254.147 10.1719 253.397 10.5724C252.655 10.9645 252.067 11.5099 251.632 12.2088C251.206 12.8991 250.993 13.6875 250.993 14.5739V27H247.976Z" fill="black"/>
</svg>
